<?xml version="1.0" encoding="UTF-8"?><svg id="Calque_1" xmlns="http://www.w3.org/2000/svg" viewBox="0 0 2379.15 594.79"><defs><style>.cls-1{fill:#fff;}.cls-2{fill:#da566e;}</style></defs><path class="cls-1" d="m1502.85,365.05c-.85.64-1.42,1.03-1.94,1.47-21.75,18.42-46.59,30.47-74.49,36.26-12.49,2.59-25.04,4.96-37.83,5.09-7.68.08-15.38-.26-23.03-.91-11.02-.93-21.8-3.19-32.15-7.22-10.92-4.25-20.62-10.28-28.18-19.4-5.94-7.18-9.62-15.38-11.11-24.57-.13-.79-.34-1.56-.6-2.72-22.48-1.5-43.05-9.34-63.01-19.77-.52,1.19-.92,2.09-1.32,2.99-9.92,22.15-22.13,42.73-40.23,59.35-8.6,7.9-18.65,12.78-30.11,14.59-8.55,1.35-16.48-.7-23.61-5.62-6.33-4.37-11.41-9.99-15.84-16.21-10.1-14.16-17.1-29.82-21.32-46.62-2.7-10.77-4.54-21.75-6.8-32.63-.53-2.57-1.13-5.13-1.87-7.65-.42-1.44-1.05-2.86-1.85-4.13-1.46-2.34-3.85-3.16-6.3-1.92-1.66.84-3.38,2.04-4.43,3.54-2.31,3.29-4.54,6.72-6.24,10.36-6.33,13.56-12.65,27.12-19.96,40.19-6.88,12.3-14.67,23.94-24.04,34.55-9.99,11.31-22.3,18.53-36.77,22.32-9.33,2.44-18.83,3.71-28.44,4.37-9.71.66-19.42.76-29.12-.06-15.14-1.27-29.81-4.38-43.39-11.51-10.81-5.68-19.75-13.37-25.53-24.32-1.41-2.67-2.51-5.51-3.91-8.62-.77.78-1.53,1.5-2.24,2.26-9.3,9.89-18.98,19.38-29.82,27.61-6.87,5.22-14.09,9.86-22.13,13.1-4.24,1.71-8.63,2.93-13.2,3.27-10.54.78-19.21-3.03-26.14-10.89-5.04-5.72-8.18-12.49-10.52-19.65-3.01-9.17-4.57-18.62-5.53-28.21-1.17-11.7-1.5-23.42-1.23-35.16,0-.29-.06-.59-.12-1.27-.76.56-1.39.94-1.92,1.43-4.98,4.62-10.16,8.98-15.89,12.66-5.57,3.57-11.42,6.5-17.98,7.81-11.5,2.29-21.19-.83-28.97-9.68-.52-.59-1.05-1.16-1.67-1.84-.52.68-.96,1.22-1.36,1.8-12.26,18.01-25.68,35.12-40.07,51.46-7.39,8.39-15.53,15.95-24.94,22.06-7.7,5.01-15.84,9.06-25.03,10.35-16.54,2.32-30.39-2.51-40.75-16-6.05-7.87-9.11-17.06-11.42-26.55-.35-1.43-.69-2.86-1.19-4.95-.83,1.57-1.35,2.5-1.83,3.46-5.22,10.33-11.13,20.22-19.19,28.63-2.51,2.62-5.27,5.03-8.08,7.34-8.07,6.62-17.4,9.67-27.82,9.47-8.92-.18-17.52-1.75-25.46-5.97-11.97-6.35-20.11-15.77-23.07-29.25-.4-1.84-.67-3.71-1.04-5.8-.52.35-.87.52-1.14.78-13.66,13.29-30.02,22.17-47.58,29.09-15.62,6.16-31.77,10.05-48.51,11.55-18.97,1.69-37.81,1.06-56.42-3.25-12.04-2.78-23.33-7.35-33.11-15.14-8.35-6.65-14.51-14.88-17.84-25.1-.12-.37-.31-.71-.65-1.47-1.02.91-1.9,1.67-2.75,2.45-10.15,9.33-21.42,16.96-34.34,21.9-13.3,5.07-26.91,5.32-40.52,1.51-3.81-1.07-7.31-3.25-11.15-5.01-.33.56-.85,1.41-1.34,2.27-3.13,5.6-6.92,10.7-11.44,15.25-7.75,7.79-17.06,10.52-27.79,8.29-6.95-1.44-12.01-5.58-15.63-11.56-3.18-5.26-4.88-11.07-6.19-17.02-.14-.65-.37-1.28-.68-2.32-.78,1.2-1.33,2.01-1.84,2.85-4.37,7.1-9.44,13.64-15.46,19.42-4.29,4.12-9.04,7.44-15.01,8.71-8.25,1.75-14.73-.99-19.61-7.68-2.64-3.62-4.5-7.66-5.78-11.96-2.27-7.59-3.41-15.39-4.18-23.24-1.65-16.86-1.3-33.75-.49-50.64.36-7.58,1.05-15.13,1.56-22.7.19-2.76,1.52-4.8,3.83-6.18,4.67-2.79,10.57.28,10.95,5.8.19,2.71-.08,5.46-.27,8.18-1.2,16.96-2.12,33.94-1.46,50.94.38,9.9,1.07,19.81,3.5,29.47.74,2.92,1.94,5.73,3.08,8.53.45,1.1,1.22,2.11,2,3.02,1.56,1.82,2.66,2.06,4.82,1.06,3.16-1.47,5.87-3.56,8.23-6.12,10.81-11.69,18.48-25.24,23.76-40.2.34-.95.57-1.94.97-2.87,1.49-3.43,4.66-5.23,8.01-4.6,3.62.68,6.1,3.43,6.29,7.15.22,4.24.28,8.49.49,12.74.36,7.28,1.07,14.53,3.09,21.57.69,2.41,1.6,4.81,2.79,7.02,2.88,5.34,8.64,7.43,14.26,5.09,2.19-.91,4.3-2.32,6.06-3.93,5.76-5.3,9.38-12.11,12.69-19.08.33-.7.19-1.79-.09-2.57-2.86-7.97-3.22-16.14-2.58-24.53.83-10.82,4.45-20.68,9.37-30.17,1.64-3.16,3.7-6.02,6.5-8.31,6.13-5,13.58-1.22,14.97,5.07.37,1.66.48,3.4.51,5.11.19,10.29-1.49,20.36-4.1,30.26-1.78,6.73-3.99,13.35-6.01,20.02-.26.86-.57,1.7-.88,2.64,3.52,3.78,8.02,5.55,12.87,6.3,11.26,1.75,22.07.56,32.47-4.62,13-6.49,23.71-15.73,33.5-26.24,1.09-1.17,1.19-2.47,1.29-3.89.48-6.7,1.73-13.26,4.5-19.4,5.67-12.59,15.09-21.34,27.88-26.46,12.66-5.06,25.8-6.51,39.32-5.11,5.16.53,10.27,1.32,15.05,3.32,3.14,1.32,6.3,2.87,9.02,4.89,10.59,7.88,12.87,20.89,5.86,32.09-3.14,5.01-7.52,8.69-12.55,11.66-7.22,4.25-15.06,6.91-23.14,8.86-10.25,2.48-20.68,3.83-31.21,4.36-5.66.29-11.33.39-16.99.59-.6.02-1.19.1-2.1.19.4,1.57.68,3.04,1.14,4.45,2.88,8.73,8.58,15.25,16.17,20.22,8.16,5.34,17.23,8.45,26.72,10.33,16.91,3.35,33.95,3.86,51.06,1.96,32.65-3.62,61.72-15.77,86.97-36.84,3.72-3.11,7.14-6.58,10.62-9.96.76-.74,1.41-1.76,1.73-2.77,4.77-15.21,14.39-26.75,27.2-35.84,13.13-9.31,27.81-15.2,43.32-19.14,11.6-2.95,23.42-4.56,35.35-5.31,1.11-.07,2.23-.11,3.34-.08,4.54.11,7.92,3.46,7.96,7.86.04,4.35-3.34,7.66-7.93,7.84-17.92.7-35.37,3.77-52.12,10.33-9.96,3.9-19.31,8.85-27.38,15.97-9.28,8.19-15.25,18.24-17.19,30.55-.7,4.42-.9,8.87-.06,13.28,1.35,7.08,4.97,12.78,10.87,16.92,8.99,6.3,19.01,8.2,29.74,6.5,5.91-.94,10.63-4.26,14.98-8.17,4.77-4.29,8.76-9.24,12.28-14.59,8.35-12.69,14.08-26.59,18.76-40.96,1.19-3.65,2.11-7.38,3.15-11.08.17-.58.31-1.17.52-1.74,1.3-3.46,4.64-5.53,8.09-5.04,3.44.5,6.15,3.44,6.45,7.05.07.8.05,1.62-.03,2.43-.98,9.91-.8,19.82.11,29.7.72,7.88,2.52,15.55,5.59,22.89.51,1.21,1.14,2.37,1.73,3.54,7.95,15.73,22.87,18.03,35.13,14.27,5.78-1.78,10.92-4.76,15.81-8.23,7.3-5.18,13.74-11.32,19.96-17.71,16.65-17.14,31.02-36,42.93-56.73,1.03-1.8,1.26-3.25.6-5.31-2.51-7.81-4.32-15.79-4.54-24.05-.15-5.82.86-11.49,2.43-17.05,1.59-5.6,5.03-9.87,10.17-12.67,6.81-3.71,13.97-1.91,18.37,4.46,3.89,5.63,4.2,11.92,3.34,18.35-1.16,8.7-4.55,16.74-7.88,24.77-1.05,2.52-2.12,5.04-3.4,7.44-.83,1.56-.78,2.85.22,4.2.06.08.1.17.15.26,5.45,9.27,12.25,11.71,22.31,7.9,5.26-1.99,9.89-5.07,14.28-8.52,8.4-6.6,15.69-14.32,22.62-22.4,1.41-1.64,2.88-3.14,5.12-3.54,4.32-.77,8.44,2.31,8.81,6.69.13,1.5.03,3.04-.1,4.55-1.34,14.94-1.22,29.9-.73,44.88.38,11.41,2.21,22.52,5.73,33.35.84,2.58,1.87,5.15,3.14,7.54,1.18,2.21,2.63,4.33,4.26,6.24,3.83,4.53,8.73,6.27,14.66,5.34,5.68-.89,10.93-2.69,15.82-5.77,12.24-7.72,23.06-17.13,32.99-27.58,5.02-5.28,9.84-10.75,14.82-16.07,1.25-1.34,1.76-2.76,1.89-4.59,1.1-15.67,6.99-28.95,19.65-38.8,6.34-4.93,13.58-7.97,21.27-9.99,14.49-3.81,29-3.9,43.46.19,4.32,1.22,8.29,3.2,11.83,6,9.5,7.48,12.04,19.13,6.52,29.9-2.56,4.99-6.4,8.82-11,11.92-7.74,5.23-16.42,8.23-25.4,10.44-10.04,2.48-20.27,3.84-30.59,4.38-6.56.35-13.13.57-19.91.86.07.63.07,1.3.23,1.93,2.43,9.72,8.29,16.97,16.48,22.46,8.1,5.43,17.17,8.53,26.64,10.52,11.44,2.4,23.05,3.61,34.69,2.94,13.34-.77,26.52-2.97,39.28-7.21,6.27-2.08,11.59-5.72,16.39-10.15,10.12-9.33,18.74-19.93,25.46-31.91,6.72-11.99,12.88-24.29,19.3-36.44,2.6-4.92,5.17-9.85,7.88-14.7,2.13-3.81,4.77-7.28,7.98-10.26,6.56-6.1,14.17-7.8,22.78-5.48,5.18,1.4,8.97,4.49,11.5,9.19,1.99,3.69,3.06,7.68,3.91,11.75,2.62,12.66,4.75,25.44,8.52,37.84,3.78,12.41,8.58,24.41,15.17,35.63,2.93,4.99,6.17,9.81,10.51,13.66,2.62,2.33,5.6,4.31,8.6,6.14,2.68,1.64,5.8,1.84,8.83,1.13,8.22-1.9,15.4-5.55,21.72-11.39,15.44-14.24,25.43-32.07,34.48-50.58,1.01-2.06,1.64-4.3,2.58-6.79-4.01-1.98-7.73-3.99-11.6-5.67-5.25-2.28-9.51-5.75-13.08-10.11-5.01-6.12-6.08-12.99-3.79-20.53,2.59-8.54,12.49-13.31,20.29-11.55,5.19,1.17,9.64,3.69,12.96,7.9,6.85,8.65,11.67,18.19,12.46,29.42.09,1.31.46,2.22,1.76,2.86,13.23,6.58,26.46,13.15,41.04,16.3,4.84,1.05,9.74,1.81,14.62,2.67.78.14,1.59.1,2.67.16.38-2.04.73-3.99,1.11-5.93,3.58-18.38,14.26-30.96,31.5-37.87,16.49-6.61,33.45-7.26,50.63-2.97,3.95.99,7.64,2.65,11.03,4.92,12.89,8.62,14.76,23.51,5.87,35.43-4.04,5.4-9.51,9.01-15.51,11.88-9.01,4.31-18.58,6.8-28.39,8.46-12.61,2.13-25.32,2.9-38.09,3-.7,0-1.4,0-2.33,0,.1.87.09,1.54.25,2.17,2.46,9.58,8.2,16.78,16.28,22.25,8.26,5.59,17.49,8.96,27.2,10.7,45.34,8.12,87.51.2,126.01-25.54,7.93-5.3,15.13-11.52,21.88-18.26,1.28-1.28,1.63-2.58,1.55-4.3-.33-7.27-.54-14.56-.8-21.83-.08-2.22.44-4.2,2.03-5.84,2-2.07,4.45-2.87,7.2-2.21,2.85.68,4.97,2.49,5.51,5.44.42,2.26.31,4.62.44,6.94.03.6.09,1.19.18,2.31.98-1.08,1.7-1.84,2.39-2.63,5.76-6.64,12.74-11.1,21.57-12.51,5.53-.88,10.69.14,15.6,2.55,9.21,4.54,16.61,11.08,21.82,20.02,4.87,8.36,8.14,17.37,10.82,26.61,1.3,4.46,2.32,9,3.63,13.46.74,2.51,1.63,5.01,2.77,7.36,4.51,9.33,12.08,14.09,22.39,14.62,7.63.39,14.88-1.35,21.95-3.92,17.01-6.18,32.2-15.51,46.16-26.95,10.59-8.68,20.4-18.17,30.1-28.32-6.3-24.23-6.06-49.18-5.34-74.49-21.03,2.05-41.55,4.56-62.2,9.29.83.83,1.37,1.36,1.9,1.9,2.39,2.4,3.02,5.88,1.62,8.96-1.32,2.92-3.91,4.5-7.31,4.36-1-.04-2.07-.11-2.97-.5-3.42-1.48-6.99-2.76-10.13-4.72-7.13-4.46-7.32-13.95-.44-18.81,2.44-1.73,5.25-3.06,8.07-4.1,8.95-3.33,18.3-5.16,27.71-6.48,13.52-1.9,27.09-3.4,40.64-5.08,1.29-.16,2.58-.36,4.04-.56.47-5.21.85-10.34,1.39-15.45,2.66-25.35,5.98-50.6,12.82-75.24,2.33-8.38,5.1-16.61,9.1-24.38,1.96-3.81,4.37-7.29,7.5-10.23,7.22-6.8,17.64-5.08,22.21,3.73,2.68,5.17,4.08,10.77,4.81,16.51,1.89,14.89,2.16,29.85,1.48,44.83-.34,7.48-.42,14.97-.87,22.44-.6,9.89-1.46,19.77-2.2,29.65-.08,1-.13,2.01-.22,3.25.88.06,1.65.19,2.42.16,13.45-.53,26.9-1.12,40.35-1.62,9.81-.36,19.63-.59,29.44-.9,19.42-.62,38.84-1.26,58.26-1.89.81-.03,1.62-.08,2.43-.06,4.59.08,7.76,3.16,7.79,7.54.03,4.44-2.96,7.62-7.53,7.83-8.59.39-17.19.76-25.79,1.05-15.88.53-31.77.92-47.65,1.5-19.72.72-39.44,1.58-59.16,2.39-.7.03-1.4.13-2.46.24-.36,2.01-.76,4.05-1.1,6.1-2.52,15.17-5.72,30.18-10.41,44.84-2.46,7.71-5.37,15.28-9.48,22.28-2.65,4.52-5.7,8.82-8.78,13.08-1.01,1.4-1.4,2.51-.67,4.1,1.93,4.23,3.49,8.64,5.68,12.72,4.55,8.48,9.85,16.5,15.74,24.11,2.55,3.29,5.37,6.3,9.08,8.39,4.14,2.33,8.54,3.56,13.29,3.76,12.24.53,24.19-1.45,36.12-3.8,22.36-4.4,43.69-11.79,64.09-21.9,18.58-9.2,35.1-21.28,49.83-35.79,7.57-7.45,14.74-15.3,22.17-22.9,1.45-1.48,1.75-2.88,1.35-4.88-1.81-9.15-3.04-18.35-2.18-27.72.59-6.43,2.19-12.56,5.66-18.06,3.47-5.49,8.08-9.53,14.68-10.89,8.12-1.68,14.63,1.1,19.52,7.45,4.77,6.19,5.46,13.34,3.59,20.78-1.44,5.74-3.72,11.16-7.45,15.79-4.89,6.07-9.89,12.04-14.99,17.93-1.35,1.56-1.69,2.85-1.14,4.87,3.57,12.87,7.8,25.5,12.42,38.02,3.81,10.33,7.62,20.67,11.43,31,.34.93.73,1.84,1.18,2.98.7-.3,1.25-.48,1.75-.75,33.83-18.28,69.4-32.41,105.87-44.36,12.96-4.24,26.12-7.88,39.18-11.79.68-.2,1.37-.38,2.06-.48,4.63-.67,8.23,1.49,9.05,5.58.91,4.57-1.26,8.58-5.9,9.74-26.62,6.64-52.49,15.64-78.12,25.33-22.63,8.56-44.64,18.51-65.91,30.06-.97.53-1.91,1.1-3.02,1.74,1.51,4.98,3.03,9.88,4.48,14.79,2.24,7.56,4.47,15.13,5.51,22.97.86,6.45,1.25,12.89-.34,19.29-3.22,12.95-13.45,19.07-26.29,15.18-14.19-4.3-23.65-13.96-29.12-27.58-3.33-8.3-3.8-16.71-.19-25.08,2.41-5.58,6.02-10.34,10.75-14.12,4.58-3.66,9.41-7.01,14.13-10.48.81-.59,1.64-1.15,2.65-1.86-8.23-23.02-16.43-45.99-24.72-69.17-2.54,2.67-5.21,5.27-7.66,8.07-20.4,23.3-44.94,40.8-73.25,53.33-14.6,6.46-29.66,11.23-45.09,15.04-9.03,2.23-18.02,4.64-27.14,6.39-11.09,2.13-22.32,2.5-33.5.37-6.93-1.32-13.04-4.36-17.99-9.44-2.68-2.75-5.29-5.6-7.64-8.63-9.41-12.09-18.02-24.67-23.43-39.16-.1-.26-.29-.48-.64-1.05-1.45,1.4-2.81,2.71-4.16,4.03-15.64,15.26-32.52,28.9-51.69,39.53-10.3,5.71-21.08,10.29-32.71,12.57-7.21,1.41-14.44,1.79-21.72.47-12.51-2.27-21.5-9.34-27.56-20.32-3.3-5.98-5.12-12.5-6.72-19.1-1.91-7.87-4.41-15.56-7.88-22.9-2.97-6.29-6.7-12.05-12.16-16.46-2.02-1.63-4.31-3.03-6.66-4.13-3.57-1.66-7.26-1.46-10.87.17-4.1,1.84-7.23,4.8-9.81,8.38-4.93,6.84-7.93,14.52-9.68,22.71-.23,1.07-.16,2.21-.1,3.32.71,12.47.08,24.87-1.88,37.2-.11.7-.26,1.39-.43,2.08-.95,3.77-4.12,6.14-7.77,5.82-3.68-.32-6.49-3.12-6.84-6.93-1.06-11.32-1.07-22.64.41-33.93.03-.19-.03-.4-.08-1.09Zm249.7-231.47c-.25-.06-.5-.13-.75-.19-1.12,1.77-2.44,3.45-3.33,5.33-1.72,3.65-3.45,7.33-4.74,11.14-6.21,18.26-9.51,37.17-12.17,56.2-1.35,9.61-2.36,19.26-3.45,28.9-.36,3.17-.48,6.37-.73,9.76,8.58-.76,16.8-1.23,25.25-2.21.68-7.76,1.49-15.19,1.94-22.65.64-10.7,1.05-21.41,1.51-32.12.59-13.76.57-27.51-.84-41.22-.45-4.4-1.13-8.77-2.68-12.94Zm-879.88,208.06c1.88,0,3.47.02,5.07,0,13.27-.16,26.47-1.07,39.49-3.78,7.56-1.57,14.83-3.98,21.57-7.81,2.74-1.56,5.29-3.38,7.21-5.94,3.33-4.46,2.59-9.37-2.21-12.18-2.84-1.66-5.98-3.14-9.18-3.78-11.57-2.33-23.19-2.07-34.52,1.3-15.77,4.68-25.04,15.24-27.43,32.2Zm436.11-3.4c.54.13.82.27,1.11.27,14.59-.03,29.12-.9,43.45-3.84,7.46-1.53,14.64-3.92,21.31-7.69,2.84-1.6,5.49-3.45,7.46-6.11,3.32-4.48,2.56-9.31-2.26-12.17-2.66-1.58-5.6-3.04-8.6-3.63-12.49-2.49-24.99-2.28-37.13,1.86-14.82,5.05-23.12,15.62-25.34,31.31Zm-1069.75,7.98c.56.11.94.25,1.33.25,14.59-.06,29.11-.91,43.44-3.87,7.05-1.46,13.85-3.73,20.22-7.16,3.14-1.69,6.09-3.64,8.27-6.53,3.37-4.5,2.66-9.32-2.15-12.18-2.74-1.63-5.78-3.1-8.87-3.73-11.87-2.41-23.75-2.04-35.41,1.37-5.97,1.75-11.38,4.67-15.94,9.05-6.47,6.24-9.73,13.94-10.88,22.8Zm1491.08-20.16c11.5-21.02,16.34-43.9,20.2-67.57-8.14.65-15.93,1.26-23.99,1.9-.91,22.22-1.13,44.06,3.79,65.67Zm257.29,86.99c-2.62,1.86-4.87,3.36-7.01,5-3.53,2.7-7.1,5.38-9.82,8.98-3.96,5.26-4.53,11.08-1.94,16.9,3.29,7.4,8.62,13.19,15.98,16.81,1.77.87,3.8,1.43,5.76,1.65,3.03.33,3.9-.44,4.95-3.29,1.3-3.52,1.32-7.15.88-10.78-1.46-11.89-5.28-23.19-8.79-35.27Zm-21.14-117.78c.59-.32.91-.39,1.08-.59,2.98-3.7,6.19-7.25,8.81-11.18,1.64-2.46,2.66-5.44,3.47-8.32.49-1.76.38-3.85-.06-5.65-.81-3.36-3.81-4.45-6.88-2.81-2.06,1.11-3.28,2.95-4.28,4.97-2.41,4.85-2.82,10.08-2.76,15.36.03,2.68.39,5.35.62,8.23Zm-750.66,12.15c-1.78-4.35-4.08-8.33-7.07-11.88-.62-.74-1.55-1.3-2.45-1.71-2.02-.92-3.32-.12-3.66,2.03-.29,1.87.57,3.28,1.67,4.66,2.95,3.69,7.03,5.51,11.51,6.89Zm-528-37.52c-3.52,3.19-5.27,13.07-3.26,18.35,2.09-6.05,4.65-11.72,3.26-18.35Z"/><circle class="cls-2" cx="2282.35" cy="298.49" r="86.12"/></svg>